<svg width="873" height="968" viewBox="0 0 873 968" fill="none" xmlns="http://www.w3.org/2000/svg">
<g opacity="0.6" clip-path="url(#clip0_23_2)" filter="url(#filter0_d_23_2)">
<path d="M-134.953 356.268C-73.577 285.781 47.6289 376.97 223.25 337.061C375.359 302.479 384.11 210.622 505.642 215.177C594.431 218.487 691.183 269.755 744.356 359.072C802.997 457.551 781.68 557.81 775.696 582.139C748.983 691.263 669.698 748.826 641.728 768.487C526.488 849.44 397.173 835.254 335.136 828.479C102.1 802.957 -147.386 636.583 -158.495 455.701C-159.971 432.021 -162.658 388.098 -134.953 356.268Z" fill="url(#paint0_linear_23_2)"/>
</g>
<defs>
<filter id="filter0_d_23_2" x="-250" y="0" width="1126.54" height="975.94" filterUnits="userSpaceOnUse" color-interpolation-filters="sRGB">
<feFlood flood-opacity="0" result="BackgroundImageFix"/>
<feColorMatrix in="SourceAlpha" type="matrix" values="0 0 0 0 0 0 0 0 0 0 0 0 0 0 0 0 0 0 127 0" result="hardAlpha"/>
<feOffset dy="4"/>
<feGaussianBlur stdDeviation="2"/>
<feComposite in2="hardAlpha" operator="out"/>
<feColorMatrix type="matrix" values="0 0 0 0 0 0 0 0 0 0 0 0 0 0 0 0 0 0 0.25 0"/>
<feBlend mode="normal" in2="BackgroundImageFix" result="effect1_dropShadow_23_2"/>
<feBlend mode="normal" in="SourceGraphic" in2="effect1_dropShadow_23_2" result="shape"/>
</filter>
<linearGradient id="paint0_linear_23_2" x1="449.823" y1="69.8268" x2="215.583" y2="775.635" gradientUnits="userSpaceOnUse">
<stop stop-color="#F3F7FF"/>
<stop offset="1" stop-color="#DEEEFE"/>
</linearGradient>
<clipPath id="clip0_23_2">
<rect width="937.962" height="671.376" fill="white" transform="translate(-0.422363) rotate(21.4558)"/>
</clipPath>
</defs>
</svg>
